<svg width="90" height="46" viewBox="0 0 90 46" fill="none" xmlns="http://www.w3.org/2000/svg">
<path d="M79.1545 28.7918C78.8358 28.7918 78.5222 28.7918 78.2036 28.7918C76.4181 28.7918 74.6325 28.7766 72.847 28.8069C72.2502 28.8171 72.0023 28.6754 72.0124 28.0179C72.0478 25.5293 72.0377 23.0356 72.0175 20.547C72.0124 19.9957 72.1743 19.7934 72.7408 19.7934C78.1732 19.8136 83.6107 19.8136 89.0431 19.8136C89.4174 19.8136 89.7209 19.8237 89.7614 20.3447C90.08 24.9021 89.4377 29.2773 87.1817 33.3036C83.5551 39.7729 78.1024 43.7739 70.7378 44.8968C61.3044 46.3384 52.5033 41.9378 47.8195 33.8448C44.6935 28.4478 41.5777 23.0508 38.4569 17.6588C37.1468 15.3979 35.8317 13.1369 34.5419 10.8658C34.0664 10.0261 33.4746 9.42928 32.4175 9.44446C31.3755 9.45963 30.7787 10.0514 30.2981 10.886C23.8389 22.0796 17.3797 33.2733 10.9407 44.477C10.5968 45.0789 10.2123 45.3015 9.52444 45.2913C6.58061 45.2559 3.63679 45.2812 0.692963 45.2762C0.495696 45.2762 0.298429 45.2559 0 45.2357C0.136569 44.9626 0.227617 44.74 0.349011 44.5326C5.37678 35.8225 10.4096 27.1175 15.4424 18.4074C17.8602 14.2294 20.2477 10.0312 22.7008 5.87343C26.2213 -0.0951531 34.117 -1.55189 39.4736 2.82844C40.556 3.71361 41.517 4.87192 42.2302 6.08081C46.7573 13.7995 51.2033 21.5637 55.6646 29.3178C60.4546 37.6485 72.0681 38.5084 78.0265 30.9566C78.502 30.3547 78.8712 29.6769 79.2911 29.0345C79.2455 28.9587 79.2 28.8727 79.1545 28.7918Z" fill="#1A6BB4"/>
<path d="M34.6178 20.628L20.3842 45.5341H31.0568L40.0502 29.8186L34.6178 20.628Z" fill="#1A6BB4"/>
<path d="M49.2459 9.06509L54.5822 18.0584C54.5822 18.0584 57.8953 9.80358 66.4435 9.31294C74.9917 8.81725 78.5981 15.5395 78.5981 15.5395H88.9268C88.9268 15.5395 84.5768 0.936696 68.1228 0.0464668C68.1228 0.0464668 57.4249 -1.18771 49.2459 9.06509Z" fill="#1A6BB4"/>
</svg>
