<svg width="289" height="147" viewBox="0 0 289 147" fill="none" xmlns="http://www.w3.org/2000/svg">
<path d="M253.919 92.3609C252.897 92.3609 251.891 92.3609 250.869 92.3609C245.141 92.3609 239.413 92.3122 233.686 92.4096C231.771 92.442 230.976 91.9877 231.008 89.8783C231.122 81.8952 231.089 73.8958 231.024 65.9127C231.008 64.144 231.527 63.495 233.345 63.495C250.771 63.5599 268.214 63.5599 285.641 63.5599C286.842 63.5599 287.815 63.5923 287.945 65.2636C288.967 79.8832 286.906 93.9186 279.67 106.834C268.036 127.587 250.544 140.422 226.919 144.024C196.658 148.649 168.425 134.532 153.4 108.571C143.372 91.2575 133.377 73.9445 123.366 56.6477C119.163 49.3947 114.944 42.1417 110.807 34.8563C109.281 32.1628 107.383 30.2481 103.992 30.2968C100.649 30.3455 98.7347 32.2439 97.1932 34.9212C76.4727 70.8291 55.7522 106.737 35.0966 142.677C33.9933 144.608 32.7601 145.322 30.5534 145.29C21.1099 145.176 11.6664 145.257 2.22295 145.241C1.59014 145.241 0.957329 145.176 0 145.111C0.4381 144.235 0.73017 143.521 1.11959 142.856C17.2481 114.915 33.3929 86.9901 49.5377 59.0491C57.2937 45.6465 64.9523 32.179 72.8219 18.8413C84.1151 -0.305276 109.444 -4.97834 126.627 9.0733C130.099 11.9128 133.182 15.6286 135.47 19.5066C149.992 44.2673 164.255 69.1741 178.566 94.0484C193.932 120.772 231.187 123.531 250.301 99.3056C251.826 97.3747 253.011 95.2004 254.357 93.1397C254.211 92.8963 254.065 92.6205 253.919 92.3609Z" fill="#1A6BB4"/>
<path d="M111.05 66.1723L65.3904 146.069H99.6271L128.477 95.6548L111.05 66.1723Z" fill="#1A6BB4"/>
<path d="M157.975 29.0799L175.094 57.9295C175.094 57.9295 185.722 31.4488 213.143 29.8749C240.565 28.2848 252.134 49.849 252.134 49.849H285.268C285.268 49.849 271.313 3.00482 218.53 0.14906C218.53 0.14906 184.213 -3.81006 157.975 29.0799Z" fill="#1A6BB4"/>
</svg>
