<svg width="27" height="27" viewBox="0 0 27 27" fill="none" xmlns="http://www.w3.org/2000/svg">
<path d="M15.7763 13.355L26.2081 2.92316C26.8772 2.25421 26.8775 1.17104 26.2081 0.501936C25.5391 -0.167225 24.456 -0.167381 23.7869 0.501883L13.355 10.9337L2.92317 0.501936C2.25422 -0.167173 1.171 -0.167381 0.50189 0.501831C-0.167271 1.17094 -0.167323 2.25395 0.50189 2.92311L10.9336 13.355L0.501838 23.7868C-0.165758 24.4544 -0.165758 25.5406 0.501838 26.2081C1.17089 26.8773 2.25401 26.8774 2.92312 26.2081L13.3549 15.7762L23.7867 26.208C24.4557 26.8771 25.5389 26.8772 26.2079 26.208C26.8771 25.539 26.8773 24.4559 26.208 23.7867L15.7763 13.355Z" fill="#1A6BB4"/>
</svg>
