<svg width="23" height="22" viewBox="0 0 23 22" fill="none" xmlns="http://www.w3.org/2000/svg">
<path d="M8.36951 16.8463V21.2826C8.36951 21.5926 8.56846 21.8671 8.86307 21.9646C8.93672 21.9886 9.01229 22 9.0869 22C9.31072 22 9.52689 21.8948 9.66463 21.7073L12.2597 18.1759L8.36951 16.8463Z" fill="#1A6BB4"/>
<path d="M22.6552 0.133041C22.4352 -0.0228717 22.1463 -0.0439151 21.9072 0.0813888L0.385519 11.3205C0.131086 11.4534 -0.0190878 11.7251 0.00195558 12.0111C0.0239555 12.298 0.214303 12.5429 0.484997 12.6357L6.46802 14.6807L19.2098 3.78598L9.35001 15.665L19.3772 19.0922C19.4518 19.1171 19.5302 19.1304 19.6087 19.1304C19.7387 19.1304 19.8679 19.0951 19.9817 19.0262C20.1634 18.9152 20.2868 18.7287 20.3184 18.5192L22.9488 0.823647C22.988 0.555822 22.8752 0.28991 22.6552 0.133041Z" fill="#1A6BB4"/>
</svg>
