<svg width="28" height="28" viewBox="0 0 28 28" fill="none" xmlns="http://www.w3.org/2000/svg">
<path d="M12.998 8.12379L12.2398 8.88201C11.969 9.15281 11.5357 9.15281 11.3191 8.88201L9.58599 7.14894C9.47767 7.04062 9.31519 6.9323 9.15272 6.9323H6.01152C5.41577 6.9323 5.14498 7.63637 5.57825 8.06963L9.3152 11.8066L9.91094 12.4023L11.5357 14.0271L12.1314 14.6228L13.4312 15.9226L14.027 16.5184L15.6518 18.1431L16.2475 18.7389L18.468 20.9594C18.5763 21.0677 18.7388 21.176 18.9013 21.176H22.0425C22.6382 21.176 22.909 20.472 22.4757 20.0387L19.1721 16.735C18.9013 16.4642 18.9013 16.031 19.1721 15.8143L19.9303 15.0561C20.2011 14.7853 20.6343 14.7853 20.851 15.0561L25.7253 19.9304C26.0502 20.2553 26.5918 20.147 26.8084 19.7679C27.6208 18.0348 27.9999 16.0851 27.9999 14.0271C27.9999 10.5068 26.7001 7.31141 24.5879 4.87428C24.2088 4.44101 23.4506 4.7118 23.4506 5.30755V10.0735C23.4506 10.236 23.3964 10.3985 23.234 10.5068L20.3636 13.4313L19.7678 14.0271L18.1431 15.6518L17.6015 16.2476L16.7349 17.1141C16.4641 17.3849 16.0309 17.3849 15.8142 17.1141L15.056 16.3559C14.7852 16.0851 14.7852 15.6518 15.056 15.4352L15.9225 14.5687L16.5183 13.9729L18.1431 12.3482L18.7388 11.7524L20.9593 9.53192C21.0676 9.4236 21.1759 9.26112 21.1759 9.09865V6.01161C21.1759 5.41586 20.4719 5.14507 20.0386 5.57834L16.2475 9.31528L15.7059 9.85687L14.0812 11.4816L13.4854 12.0774L12.5647 12.9981C12.2939 13.2689 11.8606 13.2689 11.644 12.9981L10.8858 12.2398C10.615 11.9691 10.615 11.5358 10.8858 11.3192L11.7523 10.4526L12.3481 9.85687L13.9728 8.23211L14.5686 7.63637L19.9303 2.27466C20.2552 1.94971 20.1469 1.40812 19.7678 1.19149C18.0347 0.433269 16.085 0 14.027 0C10.5067 0 7.31133 1.29981 4.87419 3.41199C4.38676 3.7911 4.71171 4.54932 5.30746 4.54932H10.0734C10.2359 4.54932 10.3984 4.60348 10.5067 4.76596L12.8897 7.14894C13.2146 7.41973 13.2146 7.853 12.998 8.12379Z" fill="#1A6BB4"/>
<path d="M14.6228 20.4178L14.0271 19.8221L12.4023 18.1973L11.8066 17.6016L10.4526 16.2476L9.85687 15.706L8.23211 14.0813L7.63637 13.4855L2.27466 8.12381C1.94971 7.79885 1.40812 7.90717 1.19149 8.28628C0.433269 10.0194 0 11.9691 0 14.0271C0 17.5474 1.29981 20.7428 3.41199 23.1799C3.7911 23.6132 4.54932 23.3424 4.54932 22.7466V17.9265C4.54932 17.764 4.60348 17.6016 4.76596 17.4932L7.14894 15.1103C7.41973 14.8395 7.853 14.8395 8.06963 15.1103L8.82786 15.8685C9.09865 16.1393 9.09865 16.5726 8.82786 16.7892L7.09478 18.4681C6.98646 18.5764 6.87814 18.7389 6.87814 18.9014V22.0426C6.87814 22.6383 7.58221 22.9091 8.01548 22.4758L11.3192 19.1722C11.5899 18.9014 12.0232 18.9014 12.2398 19.1722L12.9981 19.9304C13.2689 20.2012 13.2689 20.6344 12.9981 20.8511L8.12379 25.7254C7.79884 26.0503 7.90716 26.5919 8.28627 26.8085C10.0193 27.6209 11.9691 28 14.0271 28C17.5474 28 20.7428 26.7002 23.1799 24.588C23.6132 24.2089 23.3424 23.4507 22.7466 23.4507H17.9265C17.764 23.4507 17.6016 23.3965 17.4932 23.2341L14.6228 20.4178Z" fill="#1A6BB4"/>
</svg>
