<svg width="29" height="27" viewBox="0 0 29 27" fill="none" xmlns="http://www.w3.org/2000/svg">
<path d="M27.7917 14.5H1.20833C0.541331 14.5 0 13.9872 0 13.3553C0 12.7234 0.541331 12.2105 1.20833 12.2105H27.7917C28.4587 12.2105 29 12.7234 29 13.3553C29 13.9872 28.4587 14.5 27.7917 14.5Z" fill="#1A6BB4"/>
<path d="M27.7917 3.05263H1.20833C0.541331 3.05263 0 2.36885 0 1.52632C0 0.683787 0.541331 0 1.20833 0H27.7917C28.4587 0 29 0.683787 29 1.52632C29 2.36885 28.4587 3.05263 27.7917 3.05263Z" fill="#1A6BB4"/>
<path d="M27.7917 26.7105H1.20833C0.541331 26.7105 0 26.0267 0 25.1842C0 24.3417 0.541331 23.6579 1.20833 23.6579H27.7917C28.4587 23.6579 29 24.3417 29 25.1842C29 26.0267 28.4587 26.7105 27.7917 26.7105Z" fill="#1A6BB4"/>
</svg>
